<?xml version="1.0" encoding="UTF-8" standalone="no"?>
<!-- Created with Inkscape (http://www.inkscape.org/) -->

<svg
   xmlns:dc="http://purl.org/dc/elements/1.1/"
   xmlns:cc="http://creativecommons.org/ns#"
   xmlns:rdf="http://www.w3.org/1999/02/22-rdf-syntax-ns#"
   xmlns:svg="http://www.w3.org/2000/svg"
   xmlns="http://www.w3.org/2000/svg"
   xmlns:sodipodi="http://sodipodi.sourceforge.net/DTD/sodipodi-0.dtd"
   xmlns:inkscape="http://www.inkscape.org/namespaces/inkscape"
   id="svg2985"
   version="1.1"
   inkscape:version="0.48.2 r9819"
   width="400"
   height="400"
   sodipodi:docname="dfasma.svg">
  <metadata
     id="metadata2991">
    <rdf:RDF>
      <cc:Work
         rdf:about="">
        <dc:format>image/svg+xml</dc:format>
        <dc:type
           rdf:resource="http://purl.org/dc/dcmitype/StillImage" />
        <dc:title></dc:title>
      </cc:Work>
    </rdf:RDF>
  </metadata>
  <defs
     id="defs2989" />
  <sodipodi:namedview
     pagecolor="#ffffff"
     bordercolor="#666666"
     borderopacity="1"
     objecttolerance="10"
     gridtolerance="10"
     guidetolerance="10"
     inkscape:pageopacity="0"
     inkscape:pageshadow="2"
     inkscape:window-width="1280"
     inkscape:window-height="698"
     id="namedview2987"
     showgrid="false"
     inkscape:zoom="0.89979338"
     inkscape:cx="482.081"
     inkscape:cy="194.44762"
     inkscape:window-x="-8"
     inkscape:window-y="-8"
     inkscape:window-maximized="1"
     inkscape:current-layer="svg2985" />
  <text
     xml:space="preserve"
     style="font-size:2086.86791992px;font-style:normal;font-weight:normal;line-height:125%;letter-spacing:0px;word-spacing:0px;fill:#000000;fill-opacity:1;stroke:none;font-family:Sans"
     x="99.274879"
     y="334.29041"
     id="text4132"
     sodipodi:linespacing="125%"><tspan
       sodipodi:role="line"
       id="tspan4134"
       x="99.274879"
       y="334.29041"
       style="font-size:482.04684448px;font-style:normal;font-variant:normal;font-weight:normal;font-stretch:normal;font-family:Times New Roman;-inkscape-font-specification:Times New Roman">Δ</tspan></text>
  <g
     id="g4136"
     transform="matrix(-0.97348904,-0.02706508,-0.02706508,0.97348904,671.21455,48.54939)">
    <path
       sodipodi:nodetypes="ccc"
       inkscape:connector-curvature="0"
       id="path3765-1-9-4-82-5"
       d="m 384.33487,180.55272 c 57.96347,27.1501 32.91034,-7.4987 61.37847,-26.5668 -29.77314,6.41265 -14.44893,46.59569 -61.37847,26.5668 z"
       style="fill:#a0b600;fill-opacity:1;stroke:#006100;stroke-width:1.61231804px;stroke-linecap:butt;stroke-linejoin:miter;stroke-opacity:1" />
    <path
       sodipodi:nodetypes="ccc"
       inkscape:connector-curvature="0"
       id="path3765-1-9-4-82-5-52"
       d="m 445.53051,148.95686 c 49.54238,21.644 22.86979,-14.94816 37.08682,-35.95958 -21.35204,12.24265 6.92773,51.13014 -37.08682,35.95958 z"
       style="fill:#a0b600;fill-opacity:1;stroke:#006100;stroke-width:1.61231804px;stroke-linecap:butt;stroke-linejoin:miter;stroke-opacity:1" />
    <path
       sodipodi:nodetypes="cczzscc"
       inkscape:connector-curvature="0"
       id="path2995"
       d="m 648.09367,-20.888903 c 12.83095,32.598858 -14.4787,17.3924323 33.97861,81.541449 -4.55423,55.092774 -30.43227,111.543794 -43.97705,127.959184 -13.5448,16.41537 -76.19258,36.78504 -113.69461,12.27521 -37.50201,-24.50979 -47.16317,-85.46855 -35.28087,-103.121318 20.716,-30.776438 42.96472,-74.135993 75.8226,-100.0654327 69.84328,-0.954236 49.93725,-17.9794533 83.15132,-18.5890923 z"
       style="fill:#00aa00;fill-opacity:1;stroke:#006100;stroke-width:1.61231804px;stroke-linecap:butt;stroke-linejoin:miter;stroke-opacity:1" />
    <path
       sodipodi:nodetypes="ccc"
       inkscape:connector-curvature="0"
       id="path3765"
       d="m 480.11444,110.24231 c -4.08169,20.86264 -13.35255,52.96366 13.74145,69.62334 7.78682,-72.82969 -13.74145,-69.62334 -13.74145,-69.62334 z"
       style="fill:#00aa00;fill-opacity:1;stroke:#006100;stroke-width:1.61231804px;stroke-linecap:butt;stroke-linejoin:miter;stroke-opacity:1" />
    <path
       sodipodi:nodetypes="ccc"
       inkscape:connector-curvature="0"
       id="path3765-1-9-4-82"
       d="m 379.80184,279.98224 c 45.59617,-6.28742 25.58157,-23.07234 4.5805,-54.50775 35.2697,62.29454 2.0408,42.47326 -4.5805,54.50775 z"
       style="fill:#a0b600;fill-opacity:1;stroke:#006100;stroke-width:1.61231804px;stroke-linecap:butt;stroke-linejoin:miter;stroke-opacity:1" />
    <path
       sodipodi:nodetypes="ccc"
       inkscape:connector-curvature="0"
       id="path3765-1-9-4-82-5-5"
       d="m 600.58111,315.94181 c -24.94326,-51.63417 25.12353,-49.63914 10.53514,-75.1199 -8.70293,28.39896 -43.30598,28.7318 -10.53514,75.1199 z"
       style="fill:#a0b600;fill-opacity:1;stroke:#006100;stroke-width:1.61231804px;stroke-linecap:butt;stroke-linejoin:miter;stroke-opacity:1" />
    <path
       sodipodi:nodetypes="ccc"
       inkscape:connector-curvature="0"
       id="path3765-1"
       d="m 537.13066,234.38388 c 5.74599,23.02765 68.6381,33.72566 75.11993,5.03853 -23.81852,-35.26972 -60.25374,-8.82816 -75.11993,-5.03853 z"
       style="fill:#00aa00;fill-opacity:1;stroke:#006100;stroke-width:1.61231804px;stroke-linecap:butt;stroke-linejoin:miter;stroke-opacity:1" />
    <path
       sodipodi:nodetypes="ccc"
       inkscape:connector-curvature="0"
       id="path3765-1-9-4-82-4"
       d="m 504.70701,371.59184 c 5.52691,-9.66125 -22.83189,-15.66002 19.97943,-46.70017 -40.30829,1.37413 -27.62752,33.84024 -19.97943,46.70017 z"
       style="fill:#a0b600;fill-opacity:1;stroke:#006100;stroke-width:1.61231804px;stroke-linecap:butt;stroke-linejoin:miter;stroke-opacity:1" />
    <path
       sodipodi:nodetypes="ccc"
       inkscape:connector-curvature="0"
       id="path3765-1-9-4-82-5-5-1"
       d="m 660.3435,228.94517 c -34.10421,0.12529 18.25281,-41.39425 -14.65752,-48.55309 13.28339,31.6053 -20.40356,48.42786 14.65752,48.55309 z"
       style="fill:#a0b600;fill-opacity:1;stroke:#006100;stroke-width:1.61231804px;stroke-linecap:butt;stroke-linejoin:miter;stroke-opacity:1" />
    <path
       sodipodi:nodetypes="ccc"
       inkscape:connector-curvature="0"
       id="path3765-1-7"
       d="m 553.40215,214.61906 c 24.06793,6.07989 87.13552,-6.76259 95.44955,-34.53362 -30.23121,-13.2834 -80.12532,27.53767 -95.44955,34.53362 z"
       style="fill:#00aa00;fill-opacity:1;stroke:#006100;stroke-width:1.61231804px;stroke-linecap:butt;stroke-linejoin:miter;stroke-opacity:1" />
    <path
       sodipodi:nodetypes="ccc"
       inkscape:connector-curvature="0"
       id="path3765-1-4"
       d="m 443.9286,152.78256 c -3.415,30.35644 21.00108,54.33782 44.4307,54.04969 -2.7483,-37.10189 -12.61674,-53.71687 -44.4307,-54.04969 z"
       style="fill:#00aa00;fill-opacity:1;stroke:#006100;stroke-width:1.61231804px;stroke-linecap:butt;stroke-linejoin:miter;stroke-opacity:1" />
    <path
       sodipodi:nodetypes="ccc"
       inkscape:connector-curvature="0"
       id="path3765-1-9"
       d="m 499.35245,251.72099 c 16.767,62.89533 -15.44411,39.80454 22.63317,77.39205 47.17895,-23.8185 -8.68308,-61.02755 -22.63317,-77.39205 z"
       style="fill:#00aa00;fill-opacity:1;stroke:#006100;stroke-width:1.61231804px;stroke-linecap:butt;stroke-linejoin:miter;stroke-opacity:1" />
    <path
       sodipodi:nodetypes="ccc"
       inkscape:connector-curvature="0"
       id="path3765-1-9-4"
       d="m 483.98728,238.2668 c -30.8979,-31.93812 -74.73102,-42.31035 -99.85452,-11.90925 64.12675,65.04284 20.82078,-7.45401 99.85452,11.90925 z"
       style="fill:#00aa00;fill-opacity:1;stroke:#006100;stroke-width:1.61231804px;stroke-linecap:butt;stroke-linejoin:miter;stroke-opacity:1" />
    <path
       sodipodi:nodetypes="ccc"
       inkscape:connector-curvature="0"
       id="path3765-1-9-4-8"
       d="m 509.88755,219.97794 c -43.72323,5.62182 -66.48614,56.62806 -47.63698,47.17895 -10.9932,17.86387 54.71633,2.16502 47.63698,-47.17895 z"
       style="fill:#00aa00;fill-opacity:1;stroke:#006100;stroke-width:1.61231804px;stroke-linecap:butt;stroke-linejoin:miter;stroke-opacity:1" />
    <path
       sodipodi:nodetypes="ccscc"
       inkscape:connector-curvature="0"
       id="path3994"
       d="m 549.27972,165.2081 c 25.08705,-46.42276 96.21551,-184.104336 96.56154,-182.806828 0.3946,11.3632993 -64.73342,134.767728 -82.754,188.935818 -6.97826,20.97592 -2.02737,23.00435 -5.40548,32.67094 -15.45411,1.61147 -8.40206,-38.79993 -8.40206,-38.79993 z"
       style="fill:#008800;fill-opacity:1;stroke:#000000;stroke-width:1.61231804px;stroke-linecap:butt;stroke-linejoin:miter;stroke-opacity:1" />
    <path
       sodipodi:nodetypes="ccszc"
       inkscape:connector-curvature="0"
       id="path3994-7"
       d="m 535.19243,158.11204 c 25.08705,-46.42276 110.07148,-177.061847 110.41751,-175.764339 -6.08319,12.1730213 -70.45901,132.763759 -97.8696,183.954549 -10.43515,19.48827 -10.974,6.69765 -15.29621,6.00929 -4.3222,-0.68836 2.7483,-14.1995 2.7483,-14.1995 z"
       style="fill:#4cc64c;fill-opacity:1;stroke:#000000;stroke-width:1.61231804px;stroke-linecap:butt;stroke-linejoin:miter;stroke-opacity:1" />
    <path
       sodipodi:nodetypes="ccc"
       inkscape:connector-curvature="0"
       id="path3765-1-4-0"
       d="m 507.98698,222.92089 c 9.41038,27.15009 76.88299,16.31981 39.85022,-56.33995 -38.9341,-25.65068 -96.89762,54.84057 -39.85022,56.33995 z"
       style="fill:#00aa00;fill-opacity:1;stroke:#006100;stroke-width:1.61231804px;stroke-linecap:butt;stroke-linejoin:miter;stroke-opacity:1" />
    <path
       d="m 271.99707,251.00467 c 0,1.71965 -1.39406,3.1137 -3.11371,3.1137 -1.71965,0 -3.1137,-1.39405 -3.1137,-3.1137 0,-1.71965 1.39405,-3.1137 3.1137,-3.1137 1.71965,0 3.11371,1.39405 3.11371,3.1137 z"
       sodipodi:ry="3.1137033"
       sodipodi:rx="3.1137033"
       sodipodi:cy="251.00467"
       sodipodi:cx="268.88336"
       id="path4014-1"
       style="fill:#b6ffb6;fill-opacity:1;stroke:#006100;stroke-opacity:1"
       sodipodi:type="arc"
       transform="matrix(1.164178,0,0,1.164178,146.34944,-31.37512)" />
    <path
       d="m 271.99707,251.00467 c 0,1.71965 -1.39406,3.1137 -3.11371,3.1137 -1.71965,0 -3.1137,-1.39405 -3.1137,-3.1137 0,-1.71965 1.39405,-3.1137 3.1137,-3.1137 1.71965,0 3.11371,1.39405 3.11371,3.1137 z"
       sodipodi:ry="3.1137033"
       sodipodi:rx="3.1137033"
       sodipodi:cy="251.00467"
       sodipodi:cx="268.88336"
       id="path4014-1-1"
       style="fill:#b6ffb6;fill-opacity:1;stroke:#006100;stroke-opacity:1"
       sodipodi:type="arc"
       transform="matrix(1.164178,0,0,1.164178,155.09444,-21.658452)" />
  </g>
</svg>
