<?xml version="1.0" encoding="UTF-8" standalone="no"?>
<!-- Created with Inkscape (http://www.inkscape.org/) -->

<svg
   xmlns:dc="http://purl.org/dc/elements/1.1/"
   xmlns:cc="http://creativecommons.org/ns#"
   xmlns:rdf="http://www.w3.org/1999/02/22-rdf-syntax-ns#"
   xmlns:svg="http://www.w3.org/2000/svg"
   xmlns="http://www.w3.org/2000/svg"
   xmlns:sodipodi="http://sodipodi.sourceforge.net/DTD/sodipodi-0.dtd"
   xmlns:inkscape="http://www.inkscape.org/namespaces/inkscape"
   width="64px"
   height="64px"
   id="svg3574"
   version="1.1"
   inkscape:version="0.48.4 r9939"
   sodipodi:docname="edit_white.svg">
  <defs
     id="defs3576" />
  <sodipodi:namedview
     id="base"
     pagecolor="#ffffff"
     bordercolor="#666666"
     borderopacity="1.0"
     inkscape:pageopacity="0.0"
     inkscape:pageshadow="2"
     inkscape:zoom="5.6893094"
     inkscape:cx="27.581116"
     inkscape:cy="32.301268"
     inkscape:current-layer="layer1"
     showgrid="true"
     inkscape:document-units="px"
     inkscape:grid-bbox="true"
     inkscape:window-width="1559"
     inkscape:window-height="876"
     inkscape:window-x="41"
     inkscape:window-y="24"
     inkscape:window-maximized="1"
     showguides="true"
     inkscape:guide-bbox="true" />
  <metadata
     id="metadata3579">
    <rdf:RDF>
      <cc:Work
         rdf:about="">
        <dc:format>image/svg+xml</dc:format>
        <dc:type
           rdf:resource="http://purl.org/dc/dcmitype/StillImage" />
        <dc:title></dc:title>
      </cc:Work>
    </rdf:RDF>
  </metadata>
  <g
     id="layer1"
     inkscape:label="Layer 1"
     inkscape:groupmode="layer">
    <path
       style="fill:#ffffff;fill-opacity:1;stroke:#000000;stroke-width:1.1475;stroke-miterlimit:4;stroke-opacity:1;stroke-dasharray:none"
       d="M 28.5625 0.65625 C 27.409569 0.65557597 26.500674 1.565819 26.5 2.71875 L 26.5 6.46875 C 22.946924 7.2386279 19.683653 8.7107569 16.84375 10.78125 L 13.125 7.5 C 12.339201 6.804275 11.133225 6.8704515 10.4375 7.65625 L 6.84375 11.71875 C 6.148025 12.504549 6.2142015 13.710525 7 14.40625 L 10.46875 17.46875 C 8.6701304 20.198764 7.3725962 23.302971 6.71875 26.625 L 2.3125 26.59375 C 1.1659483 26.59308 0.2194203 27.540948 0.21875 28.6875 L 0.21875 34.625 C 0.2180797 35.771552 1.1346983 36.68683 2.28125 36.6875 L 6.71875 36.71875 C 7.4016514 40.121155 8.7755932 43.257709 10.65625 46.03125 L 7.75 49.34375 C 6.9938359 50.197813 7.0521874 51.493836 7.90625 52.25 L 12.34375 56.1875 C 13.197813 56.943664 14.493836 56.854063 15.25 56 L 17.8125 53.125 C 20.706263 55.035812 24.010903 56.354325 27.5625 56.96875 L 27.5625 60.71875 C 27.561826 61.871681 28.503319 62.811826 29.65625 62.8125 L 35.625 62.8125 C 36.777931 62.813174 37.718076 61.871681 37.71875 60.71875 L 37.71875 56.6875 C 41.322484 55.864529 44.648107 54.315899 47.5 52.15625 L 51.34375 55.5625 C 52.157773 56.283214 53.373036 56.220273 54.09375 55.40625 L 57.84375 51.1875 C 58.564464 50.373477 58.501523 49.126964 57.6875 48.40625 L 53.9375 45.09375 C 55.528187 42.507919 56.654258 39.615861 57.25 36.53125 L 61.8125 36.53125 C 62.959052 36.53192 63.87433 35.615302 63.875 34.46875 L 63.875 28.5 C 63.87567 27.353448 62.959052 26.43817 61.8125 26.4375 L 57.1875 26.4375 C 56.420732 22.69044 54.858363 19.242349 52.65625 16.28125 L 55.71875 12.8125 C 56.474914 11.958437 56.385313 10.662414 55.53125 9.90625 L 51.09375 5.96875 C 50.239687 5.2125859 48.943664 5.3021874 48.1875 6.15625 L 45.21875 9.53125 C 42.622324 7.972561 39.711058 6.8760629 36.625 6.3125 L 36.65625 2.71875 C 36.656924 1.565819 35.715431 0.65692403 34.5625 0.65625 L 28.5625 0.65625 z M 31 11.0625 C 31.350162 11.044752 31.707929 11.0625 32.0625 11.0625 C 43.408757 11.0625 52.59375 20.247492 52.59375 31.59375 C 52.59375 42.940007 43.408757 52.125 32.0625 52.125 C 20.716238 52.125 11.5 42.940007 11.5 31.59375 C 11.5 20.602063 20.144978 11.612684 31 11.0625 z "
       id="path2985" />
    <g
       id="g3089"
       transform="matrix(-0.68956456,0.72422422,-0.72422422,-0.68956456,75.361772,30.464892)"
       style="fill:#ffffff;fill-opacity:1;stroke:#000000;stroke-opacity:1;stroke-width:1.1475;stroke-miterlimit:4;stroke-dasharray:none">
      <path
         sodipodi:nodetypes="cccc"
         inkscape:connector-curvature="0"
         id="rect3083"
         d="m 38.571381,26.603525 10.579937,4.655172 c -10.558708,4.504043 -0.05492,0.08185 -10.579937,4.570533 z"
         style="fill:#ffffff;fill-opacity:1;stroke:#000000;stroke-width:1.1475;stroke-miterlimit:4;stroke-opacity:1;stroke-dasharray:none" />
      <path
         sodipodi:nodetypes="sccssss"
         inkscape:connector-curvature="0"
         id="rect3086"
         d="m 15.965897,26.442144 20.909115,0 c -0.02052,8.571677 -0.0068,0.936547 -0.02273,9.479349 l -20.886388,0 c -1.095977,0 -1.978299,-0.882322 -1.978299,-1.978299 l 0,-5.522751 c 0,-1.095977 0.882322,-1.978299 1.978299,-1.978299 z"
         style="fill:#ffffff;fill-opacity:1;stroke:#000000;stroke-width:1.1475;stroke-miterlimit:4;stroke-opacity:1;stroke-dasharray:none" />
    </g>
  </g>
</svg>
