<?xml version="1.0" encoding="UTF-8" standalone="no"?>
<!-- Created with Inkscape (http://www.inkscape.org/) -->

<svg
   xmlns:dc="http://purl.org/dc/elements/1.1/"
   xmlns:cc="http://creativecommons.org/ns#"
   xmlns:rdf="http://www.w3.org/1999/02/22-rdf-syntax-ns#"
   xmlns:svg="http://www.w3.org/2000/svg"
   xmlns="http://www.w3.org/2000/svg"
   xmlns:sodipodi="http://sodipodi.sourceforge.net/DTD/sodipodi-0.dtd"
   xmlns:inkscape="http://www.inkscape.org/namespaces/inkscape"
   width="64px"
   height="64px"
   id="svg3574"
   version="1.1"
   inkscape:version="0.48.4 r9939"
   sodipodi:docname="settings.svg">
  <defs
     id="defs3576" />
  <sodipodi:namedview
     id="base"
     pagecolor="#ffffff"
     bordercolor="#666666"
     borderopacity="1.0"
     inkscape:pageopacity="0.0"
     inkscape:pageshadow="2"
     inkscape:zoom="7.7781746"
     inkscape:cx="30.279465"
     inkscape:cy="25.751368"
     inkscape:current-layer="layer1"
     showgrid="true"
     inkscape:document-units="px"
     inkscape:grid-bbox="true"
     inkscape:window-width="1551"
     inkscape:window-height="876"
     inkscape:window-x="49"
     inkscape:window-y="24"
     inkscape:window-maximized="1"
     showguides="true"
     inkscape:guide-bbox="true" />
  <metadata
     id="metadata3579">
    <rdf:RDF>
      <cc:Work
         rdf:about="">
        <dc:format>image/svg+xml</dc:format>
        <dc:type
           rdf:resource="http://purl.org/dc/dcmitype/StillImage" />
        <dc:title />
      </cc:Work>
    </rdf:RDF>
  </metadata>
  <g
     id="layer1"
     inkscape:label="Layer 1"
     inkscape:groupmode="layer">
    <path
       inkscape:connector-curvature="0"
       style="fill:#000000;fill-opacity:1;stroke:#000000;stroke-width:0.03589395;stroke-miterlimit:4;stroke-opacity:1;stroke-dasharray:none"
       d="m 32.781357,12.529102 c -10.874705,0 -19.690536,8.815832 -19.690536,19.69054 0,10.874704 8.815831,19.690536 19.690536,19.690536 10.874707,0 19.690539,-8.815832 19.690539,-19.690536 0,-10.874708 -8.815832,-19.69054 -19.690539,-19.69054 z m 0.06,3.963775 c 8.678679,0 15.713426,7.034747 15.713426,15.713427 0,8.678678 -7.034747,15.715095 -15.713426,15.715095 -8.678682,0 -15.715095,-7.036417 -15.715095,-15.715095 0,-8.67868 7.036413,-15.713427 15.715095,-15.713427 z"
       id="path2985" />
    <rect
       style="fill:#000000;fill-opacity:1;stroke:#000000;stroke-width:0.05733628;stroke-miterlimit:4;stroke-opacity:1;stroke-dasharray:none"
       id="rect3013-8-6"
       width="10.256619"
       height="10.179291"
       x="61.679165"
       y="-1.4430802"
       transform="matrix(0.7487149,0.66289215,-0.66289215,0.7487149,0,0)"
       ry="2.0867698" />
    <path
       sodipodi:type="arc"
       style="fill:#000000;fill-opacity:1;stroke:#000000;stroke-width:0.5;stroke-miterlimit:4;stroke-opacity:1;stroke-dasharray:none"
       id="path3197"
       sodipodi:cx="-21.020355"
       sodipodi:cy="32.308762"
       sodipodi:rx="10.735167"
       sodipodi:ry="10.735167"
       d="m -10.285189,32.308762 a 10.735167,10.735167 0 1 1 -21.470333,0 10.735167,10.735167 0 1 1 21.470333,0 z"
       transform="matrix(0.8104334,0,0,0.8104334,49.635806,6.2106922)" />
    <rect
       style="fill:#000000;fill-opacity:1;stroke:#000000;stroke-width:0.05733628;stroke-miterlimit:4;stroke-opacity:1;stroke-dasharray:none"
       id="rect3013-8-6-4"
       width="10.256619"
       height="10.179291"
       x="19.653856"
       y="-3.8384027"
       transform="matrix(0.7487149,0.66289215,-0.66289215,0.7487149,0,0)"
       ry="2.0867698" />
    <rect
       style="fill:#000000;fill-opacity:1;stroke:#000000;stroke-width:0.05733628;stroke-miterlimit:4;stroke-opacity:1;stroke-dasharray:none"
       id="rect3013-8-6-4-6"
       width="10.256619"
       height="10.179291"
       x="-23.94618"
       y="-52.027565"
       transform="matrix(-0.66289215,0.7487149,-0.7487149,-0.66289215,0,0)"
       ry="2.0867698" />
    <rect
       style="fill:#000000;fill-opacity:1;stroke:#000000;stroke-width:0.05733628;stroke-miterlimit:4;stroke-opacity:1;stroke-dasharray:none"
       id="rect3013-8-6-4-6-5"
       width="10.256619"
       height="10.179291"
       x="18.74609"
       y="-49.608105"
       transform="matrix(-0.66289215,0.7487149,-0.7487149,-0.66289215,0,0)"
       ry="2.0867698" />
    <rect
       style="fill:#000000;fill-opacity:1;stroke:#000000;stroke-width:0.05733628;stroke-miterlimit:4;stroke-opacity:1;stroke-dasharray:none"
       id="rect3013-8-6-4-6-5-3"
       width="10.256619"
       height="10.179291"
       x="-16.791241"
       y="-37.360863"
       transform="matrix(-0.99999983,-5.8462209e-4,5.8462209e-4,-0.99999983,0,0)"
       ry="2.0867698" />
    <rect
       style="fill:#000000;fill-opacity:1;stroke:#000000;stroke-width:0.05733628;stroke-miterlimit:4;stroke-opacity:1;stroke-dasharray:none"
       id="rect3013-8-6-4-6-5-3-1"
       width="10.256619"
       height="10.179291"
       x="-16.019804"
       y="27.232378"
       transform="matrix(5.8462209e-4,-0.99999983,0.99999983,5.8462209e-4,0,0)"
       ry="2.0867698" />
    <rect
       style="fill:#000000;fill-opacity:1;stroke:#000000;stroke-width:0.05733628;stroke-miterlimit:4;stroke-opacity:1;stroke-dasharray:none"
       id="rect3013-8-6-4-6-5-3-1-0"
       width="10.256619"
       height="10.179291"
       x="-58.302071"
       y="27.608475"
       transform="matrix(5.8462209e-4,-0.99999983,0.99999983,5.8462209e-4,0,0)"
       ry="2.0867698" />
    <rect
       style="fill:#000000;fill-opacity:1;stroke:#000000;stroke-width:0.05733628;stroke-miterlimit:4;stroke-opacity:1;stroke-dasharray:none"
       id="rect3013-8-6-4-6-5-3-5"
       width="10.256619"
       height="10.179291"
       x="-59.013905"
       y="-37.168339"
       transform="matrix(-0.99999983,-5.8462209e-4,5.8462209e-4,-0.99999983,0,0)"
       ry="2.0867698" />
  </g>
</svg>
